<svg width="216" height="216" viewBox="0 0 216 216" fill="none" xmlns="http://www.w3.org/2000/svg">
<g id="Group 7191">
<path id="Polygon 9" d="M10.2926 115.753C7.61309 111.112 7.6131 105.394 10.2926 100.753L52.5306 27.5947C55.2101 22.9537 60.1619 20.0947 65.5209 20.0947L149.997 20.0947C155.356 20.0947 160.308 22.9537 162.987 27.5947L205.225 100.753C207.905 105.394 207.905 111.112 205.225 115.753L162.987 188.911C160.308 193.552 155.356 196.411 149.997 196.411L65.521 196.411C60.162 196.411 55.2101 193.552 52.5306 188.911L10.2926 115.753Z" stroke="white" stroke-width="10"/>
<path id="Polygon 11" d="M29.0362 118.253C25.4635 112.065 25.4635 104.441 29.0362 98.2531L59.7374 45.0771C63.31 38.8891 69.9126 35.0771 77.0579 35.0771L138.46 35.0771C145.606 35.0771 152.208 38.8891 155.781 45.0771L186.482 98.2531C190.055 104.441 190.055 112.065 186.482 118.253L155.781 171.429C152.208 177.617 145.606 181.429 138.46 181.429L77.0579 181.429C69.9126 181.429 63.31 177.617 59.7374 171.429L29.0362 118.253Z" fill="#FF5705"/>
<g id="Group 7185">
<g id="Group 7184">
<path id="Vector 2826" d="M113.298 88.2165C111.976 88.2165 110.207 87.9935 109.075 88.8108C108.231 89.4201 107.381 89.9109 106.534 90.5467C105.628 91.2257 104.752 91.938 103.875 92.6502C103.055 93.3165 102.584 94.0911 102.037 94.9413C101.674 95.5061 101.334 96.1135 101.334 96.8023C101.334 97.8097 100.896 98.7463 100.56 99.6799C99.8653 101.608 98.9973 103.484 98.55 105.498C98.3185 106.539 98.3779 107.584 98.3779 108.649C98.3779 109.836 98.5065 110.991 98.6516 112.152C98.7985 113.327 98.6337 114.59 98.6594 115.772C98.6793 116.687 99.0364 118.433 99.7151 119.111C100.19 119.586 100.683 120.577 101.302 120.84C102.503 121.347 103.441 122.729 104.79 122.974C105.732 123.145 106.847 122.982 107.808 122.982C109.101 122.982 110.394 122.982 111.687 122.982C113 122.982 114.314 122.982 115.628 122.982C116.473 122.982 117.84 122.881 118.474 122.247C120.369 120.352 120.962 118.32 121.187 115.733C121.556 111.495 122.024 107.266 122.024 102.995C122.024 100.511 122.024 98.0274 122.024 95.5434C122.024 93.872 121.85 90.527 119.913 89.8352C118.477 89.3224 116.811 89.5749 115.409 88.9516C114.484 88.5406 113.122 88.897 112.312 88.3573" stroke="black" stroke-width="2" stroke-linecap="round"/>
<path id="Vector 2827" d="M110.29 101.974C109.659 101.659 109.106 101.062 108.358 101.062C108.177 101.152 107.01 102.327 107.01 102.458C107.01 102.611 107.738 103.422 107.875 103.531C108.267 103.845 108.522 104.251 108.954 104.498C109.468 104.791 109.88 105.2 110.398 105.488C110.88 105.756 110.668 105.575 111.042 105.333C111.391 105.107 111.541 104.614 111.901 104.414C112.421 104.125 112.736 103.564 113.339 103.322C113.579 103.226 112.837 103.19 112.593 103.102C112.257 102.98 111.957 102.817 111.633 102.672C111.169 102.466 110.745 102.202 110.29 101.974Z" fill="black" stroke="black" stroke-width="2" stroke-linecap="round"/>
<path id="Vector 2828" d="M117.806 101.897C118.688 101.663 119.463 101.491 120.383 101.491C120.383 101.706 120.756 103.57 120.538 103.633C120.128 103.75 119.685 104.092 119.256 104.283C118.086 104.803 117.101 105.448 116.142 106.215C115.823 106.47 115.874 106.092 115.874 105.84C115.874 105.376 115.766 104.862 115.766 104.366C115.766 103.989 115.794 103.388 115.605 103.048C115.478 102.82 115.422 102.693 115.766 102.672C116.413 102.634 117.15 102.071 117.806 101.897Z" fill="black" stroke="black" stroke-width="2" stroke-linecap="round"/>
<path id="Vector 2829" d="M107.958 111.266C106.97 111.221 106.023 110.902 105.037 110.902C105.037 111.872 105.788 112.933 105.979 113.891C106.129 114.637 106.43 115.299 106.687 116.012C106.806 116.344 106.961 116.709 107.027 117.054C107.058 117.214 107.175 117.339 107.184 117.502C107.188 117.57 107.24 117.896 107.301 117.752C107.387 117.547 107.584 117.361 107.708 117.176C107.948 116.816 108.101 116.399 108.337 116.035C108.589 115.645 108.846 115.258 109.119 114.883C109.299 114.636 109.43 114.366 109.565 114.097C109.623 113.981 109.632 113.663 109.71 113.585C109.758 113.537 110.057 113.556 110.065 113.626C110.088 113.819 110.117 113.997 110.117 114.199C110.117 114.658 110.132 115.001 110.301 115.433C110.421 115.741 110.509 116.044 110.534 116.376C110.562 116.755 110.674 117.126 110.694 117.502C110.707 117.768 110.801 118.08 110.862 118.34C110.88 118.417 110.894 118.766 110.982 118.573C111.143 118.218 111.15 117.805 111.296 117.449C111.424 117.135 111.54 116.812 111.689 116.507C112.073 115.716 112.362 114.89 112.736 114.097C112.795 113.973 112.773 113.668 112.946 113.678C113.061 113.685 113.137 113.985 113.152 114.068C113.218 114.427 113.397 114.772 113.417 115.145C113.437 115.501 113.663 115.85 113.72 116.204C113.77 116.517 113.872 116.793 113.996 117.083C114.127 117.388 114.374 117.656 114.465 117.973C114.572 118.347 114.688 117.996 114.834 117.813C115.662 116.779 116.495 115.747 117.427 114.801C117.587 114.64 118.416 113.515 118.446 114.347C118.469 114.993 118.722 115.598 118.763 116.245C118.819 117.144 119.127 118.034 119.127 118.939C119.127 119.058 119.235 118.579 119.258 118.497C119.393 118.008 119.516 117.517 119.662 117.03C120.011 115.868 120.502 114.785 120.931 113.655C121.06 113.315 121.123 112.923 121.3 112.604C121.384 112.454 121.362 112.421 121.222 112.421C120.149 112.421 119.063 112.147 117.983 112.057C117.164 111.989 116.312 111.945 115.501 111.804C115.118 111.738 114.668 111.635 114.282 111.635C113.822 111.635 113.356 111.531 112.893 111.531C112.139 111.531 111.389 111.426 110.63 111.426C109.729 111.426 108.855 111.307 107.958 111.266Z" fill="black" stroke="black" stroke-width="2" stroke-linecap="round"/>
<g id="Group 7183">
<path id="Vector 2830" d="M96.8236 125.516C94.7333 125.516 92.6431 125.516 90.5529 125.516C87.5806 125.516 84.6376 124.945 81.6694 124.863C79.5316 124.804 77.4148 124.34 75.2681 124.34C74.8544 124.34 74.4407 124.34 74.027 124.34C73.7352 124.34 74.0731 124.348 74.1722 124.333C74.6439 124.261 75.0805 124.101 75.5294 123.948C78.5537 122.921 81.3122 121.403 84.2532 120.189C85.5436 119.656 86.9393 119.192 88.2739 118.788C89.6794 118.363 91.0422 117.766 92.4834 117.446C92.6609 117.406 93.6428 117.155 93.3616 117.155C92.3385 117.155 91.3146 117.169 90.2916 117.155C89.1288 117.139 87.9981 116.894 86.8297 116.894C85.6838 116.894 84.5698 116.633 83.433 116.633C81.717 116.633 80.0305 116.241 78.3309 116.241C76.3737 116.241 74.4165 116.241 72.4594 116.241C72.0021 116.241 71.5449 116.241 71.0877 116.241C70.2552 116.241 71.7364 116.251 71.9368 116.234C73.3795 116.108 74.877 115.308 76.2116 114.804C78.6378 113.888 80.8607 112.5 83.2081 111.407C84.9215 110.61 86.6239 109.867 88.4554 109.382C88.645 109.332 91.0174 108.75 91.0174 108.533C91.0174 108.455 88.4524 108.658 88.3828 108.664C86.3423 108.83 84.3387 108.9 82.2936 108.925C79.6411 108.958 76.9999 108.976 74.3536 108.925C73.6793 108.912 73.0033 108.925 72.3287 108.925C72.1753 108.925 71.0383 108.961 71.4142 108.794C73.6687 107.792 75.7018 106.277 78.0115 105.332C79.0727 104.898 80.1818 104.418 81.3065 104.193C82.2414 104.006 83.1922 103.847 84.0862 103.503C84.9249 103.181 87.5831 102.785 86.6845 102.785C83.1395 102.785 79.5891 102.452 76.0519 102.255C74.8228 102.187 73.6305 101.87 72.394 101.87C71.1772 101.87 69.9603 101.87 68.7434 101.87C68.044 101.87 68.4268 101.74 68.8668 101.74C69.6094 101.74 70.2893 101.54 71.0223 101.486C73.8767 101.274 76.7664 100.444 79.5574 99.8456C81.0256 99.531 82.5432 99.2337 83.9919 98.8658C84.6959 98.687 85.6594 98.2522 86.3724 98.2126C86.7051 98.1941 86.4735 98.2126 86.2708 98.2126C85.6871 98.2126 85.0709 97.991 84.5362 97.7771C83.0813 97.1952 81.7025 96.431 80.2396 95.8683C79.2913 95.5036 78.3098 95.2611 77.3583 94.9176C75.1503 94.1202 72.7654 93.8338 70.4345 93.7708C68.9789 93.7315 67.5852 93.0421 66.1524 92.987C65.7827 92.9728 64.7958 92.9607 64.4904 92.7911C64.3157 92.694 63.3427 92.7257 63.9678 92.7257C68.8361 92.7257 73.6742 92.4645 78.5413 92.4645C79.7888 92.4645 81.0143 92.3338 82.2646 92.3338C82.729 92.3338 83.1935 92.3338 83.658 92.3338C83.9398 92.3338 85.2121 92.197 84.5435 92.4645" stroke="black" stroke-width="2" stroke-linecap="round"/>
<path id="Vector 2831" d="M84.4047 92.6277C80.884 90.96 77.6841 88.7093 74.3621 86.6331C70.9883 84.5244 67.766 81.6467 65.0081 78.7866C63.871 77.6074 63.8087 76.1824 63.1563 74.6912C62.8139 73.9087 61.8723 72.1428 63.0494 73.516C63.3239 73.8363 63.8721 73.8945 64.2484 74.0502C65.8369 74.7075 67.434 75.3432 69.0204 76.0089C72.2153 77.3496 75.4296 78.6412 78.5881 80.0686C82.1708 81.6878 85.6686 83.421 89.3191 84.8406C89.8778 85.0579 92.3105 86.4031 92.3105 85.5766C92.3105 82.4769 92.9914 79.647 93.4263 76.6024C93.8142 73.8872 94.6609 71.2536 94.6609 68.4948C94.6609 68.1493 94.6174 67.1184 94.922 67.8419C95.4899 69.1907 96.5286 70.2384 97.3911 71.4268C99.121 73.8103 100.727 76.6406 101.593 79.487C101.906 80.5136 102.015 81.7025 102.46 82.6802C102.687 83.1804 102.6 83.6063 102.768 82.6802C103.035 81.215 104.655 79.8275 105.606 78.7391C107.018 77.1215 108.229 75.4059 109.404 73.611C110.216 72.3701 111.055 71.1325 111.85 69.8836C112.084 69.5144 112.182 68.1758 112.182 68.6135C112.182 71.0628 112.182 73.5121 112.182 75.9614C112.182 77.0851 112.182 78.2089 112.182 79.3326C112.182 80.2381 112.706 82.0021 111.541 81.3032" stroke="black" stroke-width="2" stroke-linecap="round"/>
<path id="Vector 2832" d="M111.108 81.8753C112.101 81.765 113.56 79.9298 114.33 79.3025C115.773 78.1281 117.022 76.4832 118.177 75.0404C120.277 72.4147 122.551 69.9907 124.44 67.192C125.219 66.0371 126.041 64.839 127.065 63.9175C127.67 63.3725 127.013 68.7761 127.013 68.7773C126.1 73.0982 124.659 77.5744 122.984 81.6414C122.863 81.9359 124.214 80.8624 124.544 80.6539C126.996 79.1034 129.459 77.5595 132.054 76.2619C134.455 75.0616 136.806 73.774 139.175 72.5196C139.379 72.4116 140.597 71.7567 140.578 72.0518C140.536 72.7255 140.122 73.3608 139.877 73.9749C138.578 77.2213 137.584 80.6137 136.018 83.7465C135.854 84.0737 135.035 86.2149 135.095 86.1893C135.849 85.8664 136.968 85.8515 137.785 85.8515C140.583 85.8515 143.381 85.8515 146.179 85.8515C146.915 85.8515 147.652 85.8515 148.388 85.8515C148.613 85.8515 147.986 86.0552 147.777 86.1374C146.82 86.5132 145.995 87.297 145.243 87.9695C142.78 90.1734 140.085 92.1376 137.668 94.3886C137.325 94.7081 134.852 96.8445 135.667 96.8445C136.585 96.8445 137.199 97.1204 138.006 97.5462C139.808 98.4972 141.662 99.3544 143.437 100.353C146.414 102.027 149.712 102.996 152.741 104.511C153.515 104.898 152.599 104.797 152.221 104.797C150.541 104.797 148.86 104.797 147.179 104.797C145.096 104.797 143.013 104.797 140.929 104.797C140.478 104.797 139.583 104.615 140.461 104.81C141.321 105.001 142.3 106.101 142.93 106.668C145.13 108.648 147.76 110.134 149.947 112.048C150.14 112.216 151.827 113.217 150.987 113.217C149.829 113.217 148.657 112.983 147.465 112.983C144.667 112.983 141.869 112.983 139.071 112.983C138.167 112.983 138.985 113.281 139.422 113.581C140.503 114.324 141.624 115.432 142.554 116.362C143.524 117.332 144.557 118.585 145.607 119.402C146.019 119.722 146.486 120.255 146.984 120.455C147.56 120.685 145.746 120.468 145.126 120.468C142.788 120.468 140.475 120.159 138.149 119.987C137.398 119.931 136.618 119.57 135.901 119.532C134.604 119.464 133.451 119.351 132.158 119.116C131.082 118.921 129.615 118.897 128.65 118.415C128.548 118.364 129.803 118.633 130.157 118.882C131.717 119.978 133.354 120.939 134.913 122.053C136.293 123.038 137.797 123.863 139.123 124.912C140.014 125.616 140.963 126.507 141.982 127.017C142.381 127.216 144.444 129.036 144.191 129.109C142.984 129.454 140.952 128.528 139.773 128.316C138.175 128.029 136.556 127.491 134.965 127.264C131.685 126.795 128.5 126.081 125.154 126.081C124.228 126.081 123.394 125.847 122.465 125.847" stroke="black" stroke-width="2" stroke-linecap="round"/>
<path id="Vector 2839" d="M96.2157 125.46C93.6713 127.439 91.72 130.236 89.8683 132.83C86.8799 137.016 84.4059 141.424 81.9646 145.937C81.5134 146.771 81.1236 147.734 80.5608 148.5C80.4158 148.697 80.0379 149.292 80.0725 149.049C80.0964 148.882 80.7484 148.567 80.866 148.47C81.5889 147.871 82.3309 147.296 83.0021 146.639C85.5352 144.156 88.2904 141.902 91.0432 139.666C93.7973 137.428 96.3722 135.051 98.9622 132.632C99.0979 132.505 102.057 129.274 102.128 129.382C102.798 130.386 103.307 131.694 103.852 132.784C105.777 136.633 107.459 140.607 109.254 144.518C110.284 146.762 111.38 148.933 112.618 151.063C112.743 151.278 113.651 152.741 113.656 152.62C113.707 151.346 113.222 150.049 113.137 148.775C113.008 146.832 112.989 144.877 112.969 142.931C112.945 140.489 112.557 138.075 112.557 135.622C112.557 135.169 112.631 134.635 112.55 134.188C112.479 133.798 112.309 133.367 112.428 132.952C112.614 132.301 122.132 137.21 122.368 137.331C124.823 138.589 127.451 139.693 129.776 141.191C130.666 141.765 131.392 142.617 132.187 143.312C132.564 143.642 132.908 143.865 133.354 144.068C133.611 144.184 133.463 143.942 133.423 143.762C133.182 142.68 132.621 141.628 132.133 140.642C130.519 137.38 129.003 134.055 127.281 130.846C127.02 130.36 126.827 129.706 126.427 129.305C126.13 129.009 125.739 128.681 125.389 128.481C124.768 128.126 124.38 127.464 123.757 127.108C123.259 126.824 122.964 126.361 122.719 125.872" stroke="black" stroke-width="2" stroke-linecap="round"/>
</g>
</g>
</g>
</g>
</svg>
