<svg width="158" height="154" viewBox="0 0 158 154" fill="none" xmlns="http://www.w3.org/2000/svg">
<g id="Group 7200">
<g id="Group 7185">
<g id="Group 7184">
<path id="Vector 2826" d="M88.4232 42.7987C86.1872 42.7987 83.1933 42.4214 81.2785 43.8043C79.851 44.8353 78.4129 45.6657 76.9784 46.7416C75.4466 47.8905 73.963 49.0957 72.4799 50.3007C71.0922 51.4282 70.2955 52.7388 69.3706 54.1774C68.7563 55.133 68.1799 56.1607 68.1799 57.3264C68.1799 59.0308 67.4387 60.6157 66.87 62.1953C65.6953 65.4583 64.2266 68.6328 63.4696 72.0392C63.0781 73.8012 63.1785 75.5689 63.1785 77.3713C63.1785 79.3807 63.3961 81.3342 63.6416 83.2987C63.8901 85.2866 63.6114 87.4238 63.6549 89.4247C63.6885 90.9722 64.2927 93.926 65.441 95.0743C66.2439 95.8771 67.0787 97.5548 68.1269 97.9984C70.1582 98.8577 71.7461 101.196 74.0279 101.61C75.6217 101.9 77.5092 101.624 79.1351 101.624C81.3226 101.624 83.5101 101.624 85.6977 101.624C87.9205 101.624 90.1433 101.624 92.3661 101.624C93.796 101.624 96.1098 101.452 97.1821 100.38C100.388 97.1736 101.393 93.7358 101.773 89.3585C102.397 82.1865 103.189 75.0306 103.189 67.8053C103.189 63.6022 103.189 59.3992 103.189 55.1962C103.189 52.3681 102.894 46.7082 99.6166 45.5376C97.1872 44.6699 94.3686 45.0971 91.9956 44.0425C90.4309 43.3471 88.1261 43.9502 86.7561 43.0369" stroke="black" stroke-width="3" stroke-linecap="round"/>
<path id="Vector 2827" d="M83.3348 66.0777C82.2663 65.5434 81.3311 64.5334 80.0647 64.5334C79.7591 64.6863 77.7837 66.6736 77.7837 66.8952C77.7837 67.1552 79.0165 68.5274 79.2472 68.7119C79.9113 69.2433 80.3431 69.9293 81.074 70.347C81.9433 70.8437 82.6407 71.5358 83.5165 72.0224C84.332 72.4755 83.9739 72.1693 84.6065 71.76C85.197 71.3779 85.4511 70.5439 86.0599 70.2057C86.9392 69.7172 87.4723 68.7667 88.4923 68.3587C88.8995 68.1958 87.6428 68.1351 87.2307 67.9852C86.6631 67.7788 86.1549 67.5026 85.6057 67.2585C84.8205 66.9095 84.104 66.4623 83.3348 66.0777Z" fill="black" stroke="black" stroke-width="3" stroke-linecap="round"/>
<path id="Vector 2828" d="M96.0522 65.9463C97.5446 65.5513 98.8552 65.26 100.412 65.26C100.412 65.6242 101.044 68.7778 100.675 68.8834C99.9802 69.0818 99.232 69.6603 98.5048 69.9835C96.5262 70.8629 94.859 71.9554 93.2363 73.2536C92.697 73.6851 92.7821 73.0455 92.7821 72.6178C92.7821 71.8336 92.6005 70.9628 92.6005 70.1248C92.6005 69.4856 92.6477 68.4698 92.328 67.8943C92.1133 67.5079 92.0184 67.2926 92.6005 67.2584C93.6952 67.194 94.9418 66.2403 96.0522 65.9463Z" fill="black" stroke="black" stroke-width="3" stroke-linecap="round"/>
<path id="Vector 2829" d="M79.3893 81.7996C77.717 81.7235 76.1153 81.1841 74.4458 81.1841C74.4458 82.8244 75.7171 84.6206 76.0411 86.2408C76.2936 87.5032 76.8032 88.6237 77.2376 89.8302C77.4397 90.3918 77.7024 91.0089 77.8137 91.5929C77.8655 91.8649 78.0643 92.0764 78.0795 92.3512C78.0859 92.4664 78.1738 93.0174 78.2765 92.7746C78.4232 92.4278 78.7568 92.1133 78.9658 91.7997C79.3722 91.1901 79.6309 90.4844 80.0294 89.8696C80.4572 89.2096 80.8917 88.5552 81.3538 87.9198C81.6573 87.5025 81.8796 87.0456 82.1072 86.5904C82.2058 86.3932 82.2214 85.8558 82.3534 85.7238C82.4351 85.6421 82.9402 85.6751 82.9541 85.7927C82.9926 86.12 83.0427 86.4205 83.0427 86.7627C83.0427 87.5396 83.0666 88.1189 83.3529 88.8504C83.5571 89.3721 83.7052 89.884 83.7468 90.4457C83.7943 91.0871 83.985 91.7151 84.0176 92.3512C84.0407 92.802 84.1995 93.3288 84.3032 93.7692C84.3339 93.8998 84.3563 94.4904 84.5051 94.1631C84.7776 93.5636 84.7905 92.8646 85.0368 92.2626C85.2543 91.731 85.4502 91.1839 85.7015 90.6673C86.3525 89.3292 86.8407 87.9317 87.4741 86.5904C87.5732 86.3804 87.5354 85.8641 87.8286 85.8814C88.0233 85.8928 88.1526 86.4002 88.1782 86.5411C88.2887 87.1491 88.5912 87.7314 88.6262 88.3629C88.6597 88.9655 89.0416 89.5554 89.1383 90.1552C89.2238 90.6853 89.3959 91.1518 89.6061 91.6422C89.827 92.1577 90.2453 92.6115 90.3988 93.1488C90.5796 93.7817 90.7762 93.188 91.0241 92.878C92.4243 91.1278 93.8339 89.3815 95.4112 87.7819C95.6812 87.5081 97.0842 85.6058 97.1345 87.0138C97.1735 88.1061 97.6028 89.1299 97.6712 90.2241C97.7663 91.7464 98.2867 93.2517 98.2867 94.7835C98.2867 94.9842 98.47 94.1729 98.5082 94.0351C98.738 93.2079 98.9455 92.3772 99.1927 91.5535C99.7826 89.5872 100.614 87.7545 101.339 85.842C101.557 85.2672 101.665 84.6035 101.965 84.0645C102.106 83.8101 102.069 83.7543 101.832 83.7543C100.017 83.7543 98.1792 83.2911 96.3516 83.1388C94.9652 83.0233 93.5241 82.9491 92.1517 82.7104C91.5033 82.5977 90.7425 82.4249 90.0886 82.4249C89.3116 82.4249 88.5218 82.2476 87.74 82.2476C86.4634 82.2476 85.195 82.0704 83.9093 82.0704C82.3853 82.0704 80.9067 81.8685 79.3893 81.7996Z" fill="black" stroke="black" stroke-width="3" stroke-linecap="round"/>
<g id="Group 7183">
<path id="Vector 2830" d="M60.5488 105.912C57.012 105.912 53.4753 105.912 49.9385 105.912C44.9093 105.912 39.9296 104.946 34.9073 104.806C31.29 104.706 27.7082 103.922 24.076 103.922C23.376 103.922 22.676 103.922 21.976 103.922C21.4822 103.922 22.054 103.936 22.2216 103.91C23.0198 103.787 23.7585 103.517 24.5181 103.259C29.6354 101.521 34.3028 98.9514 39.2791 96.8977C41.4626 95.9966 43.8242 95.2103 46.0824 94.5276C48.4606 93.8086 50.7664 92.7976 53.2051 92.2557C53.5054 92.189 55.1667 91.7645 54.691 91.7645C52.9598 91.7645 51.2273 91.7882 49.4964 91.7645C47.5289 91.7375 45.6157 91.3224 43.6386 91.3224C41.6998 91.3224 39.8148 90.8803 37.8914 90.8803C34.9878 90.8803 32.1342 90.2172 29.2583 90.2172C25.9467 90.2172 22.6351 90.2172 19.3234 90.2172C18.5498 90.2172 17.7761 90.2172 17.0024 90.2172C15.5938 90.2172 18.1002 90.2344 18.4393 90.2049C20.8804 89.9926 23.4142 88.6382 25.6724 87.7856C29.7777 86.2357 33.5389 83.8874 37.5107 82.0384C40.4099 80.6888 43.2905 79.4325 46.3895 78.6122C46.7102 78.5273 50.7244 77.5431 50.7244 77.1754C50.7244 77.0438 46.3845 77.3868 46.2667 77.3964C42.814 77.6783 39.4238 77.7958 35.9634 77.8385C31.4753 77.8939 27.0063 77.9246 22.5286 77.8385C21.3876 77.8166 20.2438 77.8385 19.1024 77.8385C18.8428 77.8385 16.9189 77.9002 17.5551 77.6175C21.3696 75.9221 24.8097 73.3585 28.718 71.7597C30.5134 71.0252 32.3901 70.2123 34.2933 69.8317C35.875 69.5153 37.4839 69.2469 38.9967 68.665C40.4158 68.1192 44.9135 67.4493 43.393 67.4493C37.3948 67.4493 31.3872 66.8853 25.4022 66.5528C23.3225 66.4373 21.305 65.902 19.2129 65.902C17.1539 65.902 15.0949 65.902 13.0359 65.902C11.8525 65.902 12.5001 65.6809 13.2446 65.6809C14.5011 65.6809 15.6516 65.343 16.8919 65.2511C21.7216 64.8933 26.6112 63.4877 31.3337 62.4757C33.8179 61.9434 36.3858 61.4404 38.837 60.8179C40.0282 60.5153 41.6584 59.7797 42.865 59.7126C43.4278 59.6814 43.036 59.7126 42.6931 59.7126C41.7054 59.7126 40.6628 59.3377 39.758 58.9758C37.2963 57.9911 34.9632 56.698 32.488 55.7461C30.8834 55.1289 29.2226 54.7187 27.6127 54.1373C23.8767 52.7882 19.8412 52.3036 15.8972 52.197C13.4343 52.1305 11.0762 50.964 8.65177 50.8707C8.02615 50.8467 6.35638 50.8263 5.83956 50.5392C5.54392 50.3749 3.89763 50.4286 4.95537 50.4286C13.1927 50.4286 21.3791 49.9866 29.6144 49.9866C31.7252 49.9866 33.7988 49.7655 35.9143 49.7655C36.7002 49.7655 37.4862 49.7655 38.2721 49.7655C38.7488 49.7655 40.9017 49.534 39.7703 49.9866" stroke="black" stroke-width="3" stroke-linecap="round"/>
<path id="Vector 2831" d="M39.5355 50.263C33.5784 47.4412 28.1639 43.6328 22.5431 40.1198C16.8344 36.5519 11.3822 31.6826 6.71563 26.8432C4.7917 24.848 4.68612 22.4367 3.58227 19.9137C3.00297 18.5895 1.40981 15.6015 3.4015 17.9252C3.86593 18.467 4.79346 18.5656 5.43015 18.829C8.11801 19.9413 10.8203 21.0167 13.5046 22.1432C18.9106 24.4118 24.3493 26.5972 29.6936 29.0124C35.7558 31.7521 41.6742 34.6848 47.851 37.0869C48.7963 37.4545 52.9125 39.7306 52.9125 38.3322C52.9125 33.0874 54.0646 28.2991 54.8006 23.1474C55.4569 18.5532 56.8895 14.097 56.8895 9.42897C56.8895 8.84445 56.8159 7.10001 57.3314 8.32426C58.2923 10.6065 60.0497 12.3793 61.5092 14.3901C64.4363 18.423 67.1537 23.2121 68.6195 28.0282C69.1482 29.7654 69.3338 31.7771 70.0857 33.4313C70.4705 34.2777 70.323 34.9984 70.608 33.4313C71.0587 30.9522 73.8003 28.6044 75.4084 26.7629C77.7985 24.0258 79.848 21.1229 81.8358 18.0859C83.2102 15.9862 84.6287 13.8921 85.9735 11.779C86.371 11.1543 86.5359 8.88932 86.5359 9.62983C86.5359 13.7742 86.5359 17.9185 86.5359 22.0628C86.5359 23.9643 86.5359 25.8657 86.5359 27.7671C86.5359 29.2992 87.4224 32.284 85.4512 31.1013" stroke="black" stroke-width="3" stroke-linecap="round"/>
<path id="Vector 2832" d="M84.7183 32.0694C86.3978 31.8828 88.8669 28.7775 90.1709 27.7161C92.6123 25.7289 94.726 22.9457 96.6789 20.5045C100.233 16.0616 104.08 11.96 107.276 7.22462C108.595 5.27049 109.985 3.24322 111.718 1.68401C112.743 0.76172 111.63 9.90497 111.63 9.90698C110.086 17.2181 107.648 24.7921 104.814 31.6737C104.609 32.172 106.894 30.3555 107.452 30.0027C111.601 27.3793 115.769 24.7669 120.161 22.5712C124.223 20.5402 128.2 18.3617 132.209 16.2391C132.554 16.0564 134.615 14.9482 134.584 15.4476C134.512 16.5875 133.812 17.6624 133.396 18.7016C131.199 24.1946 129.517 29.9346 126.866 35.2355C126.59 35.7891 125.205 39.4122 125.305 39.3689C126.581 38.8224 128.475 38.7973 129.857 38.7973C134.591 38.7973 139.325 38.7973 144.06 38.7973C145.306 38.7973 146.552 38.7973 147.798 38.7973C148.178 38.7973 147.118 39.1419 146.764 39.281C145.145 39.917 143.749 41.2431 142.477 42.3811C138.309 46.1101 133.75 49.4337 129.659 53.2424C129.078 53.783 124.895 57.3979 126.273 57.3979C127.826 57.3979 128.865 57.8648 130.23 58.5852C133.279 60.1944 136.417 61.6449 139.421 63.3343C144.458 66.1674 150.038 67.8074 155.163 70.37C156.473 71.0251 154.923 70.8537 154.284 70.8537C151.44 70.8537 148.596 70.8537 145.753 70.8537C142.228 70.8537 138.703 70.8537 135.177 70.8537C134.413 70.8537 132.899 70.5453 134.386 70.8757C135.839 71.1987 137.497 73.0601 138.563 74.0197C142.285 77.3696 146.735 79.8841 150.436 83.1222C150.762 83.4077 153.617 85.1009 152.195 85.1009C150.235 85.1009 148.252 84.7052 146.237 84.7052C141.502 84.7052 136.768 84.7052 132.033 84.7052C130.504 84.7052 131.888 85.2084 132.627 85.7166C134.455 86.9737 136.352 88.8483 137.926 90.4217C139.568 92.0638 141.315 94.1844 143.093 95.5665C143.789 96.1079 144.58 97.0101 145.423 97.3474C146.396 97.7367 143.327 97.3694 142.279 97.3694C138.323 97.3694 134.41 96.8476 130.472 96.5559C129.203 96.4619 127.882 95.8503 126.669 95.7864C124.474 95.6709 122.524 95.4805 120.336 95.0828C118.516 94.7518 116.033 94.7119 114.4 93.8956C114.228 93.8094 116.351 94.2657 116.951 94.6871C119.589 96.5412 122.36 98.1676 124.998 100.052C127.332 101.719 129.878 103.115 132.121 104.889C133.629 106.081 135.235 107.589 136.958 108.451C137.633 108.788 141.124 111.868 140.696 111.99C138.654 112.574 135.216 111.008 133.221 110.649C130.517 110.164 127.778 109.253 125.086 108.868C119.536 108.076 114.147 106.868 108.486 106.868C106.917 106.868 105.507 106.472 103.934 106.472" stroke="black" stroke-width="3" stroke-linecap="round"/>
<path id="Vector 2839" d="M59.5204 105.817C55.2152 109.165 51.9135 113.897 48.7803 118.287C43.7237 125.37 39.5376 132.828 35.4068 140.464C34.6434 141.875 33.9838 143.505 33.0316 144.801C32.7862 145.135 32.1468 146.141 32.2054 145.731C32.2459 145.448 33.349 144.914 33.5479 144.75C34.7711 143.737 36.0267 142.765 37.1624 141.652C41.4485 137.451 46.1104 133.637 50.7682 129.853C55.4283 126.068 59.7853 122.044 64.1675 117.951C64.3971 117.737 69.4039 112.271 69.5247 112.452C70.6583 114.152 71.5199 116.365 72.4421 118.209C75.6982 124.722 78.5444 131.447 81.5815 138.063C83.3244 141.86 85.1788 145.535 87.2742 149.139C87.4854 149.502 89.0216 151.978 89.0298 151.772C89.116 149.617 88.2957 147.422 88.152 145.266C87.9329 141.98 87.9013 138.671 87.868 135.378C87.8263 131.247 87.171 127.162 87.171 123.011C87.171 122.245 87.2957 121.342 87.158 120.585C87.038 119.924 86.7507 119.196 86.9515 118.493C87.2662 117.392 103.372 125.698 103.772 125.903C107.926 128.032 112.372 129.9 116.306 132.435C117.812 133.406 119.04 134.847 120.385 136.023C121.024 136.582 121.605 136.958 122.36 137.301C122.794 137.499 122.544 137.089 122.476 136.785C122.07 134.954 121.12 133.173 120.295 131.505C117.563 125.985 114.998 120.359 112.085 114.93C111.643 114.108 111.316 113 110.639 112.323C110.137 111.821 109.475 111.267 108.884 110.929C107.833 110.328 107.175 109.207 106.121 108.605C105.279 108.124 104.779 107.341 104.365 106.514" stroke="black" stroke-width="3" stroke-linecap="round"/>
</g>
</g>
</g>
</g>
</svg>
