<svg width="94" height="92" viewBox="0 0 94 92" fill="none" xmlns="http://www.w3.org/2000/svg">
<path d="M52.4177 25.6198C51.0962 25.6198 49.3268 25.3968 48.1951 26.2141C47.3515 26.8234 46.5016 27.3142 45.6538 27.9501C44.7484 28.6291 43.8717 29.3413 42.9952 30.0535C42.175 30.7199 41.7041 31.4944 41.1576 32.3446C40.7945 32.9094 40.4538 33.5168 40.4538 34.2057C40.4538 35.213 40.0158 36.1496 39.6797 37.0832C38.9855 39.0116 38.1174 40.8878 37.6701 42.901C37.4387 43.9423 37.498 44.987 37.498 46.0522C37.498 47.2398 37.6266 48.3943 37.7717 49.5554C37.9186 50.7302 37.7538 51.9933 37.7795 53.1758C37.7994 54.0904 38.1565 55.8361 38.8352 56.5147C39.3096 56.9892 39.803 57.9807 40.4225 58.2428C41.623 58.7507 42.5615 60.1324 43.91 60.3776C44.8519 60.5488 45.9675 60.3854 46.9284 60.3854C48.2212 60.3854 49.514 60.3854 50.8068 60.3854C52.1205 60.3854 53.4342 60.3854 54.7479 60.3854C55.593 60.3854 56.9604 60.2841 57.5942 59.6503C59.4891 57.7554 60.0826 55.7237 60.3075 53.1367C60.6761 48.898 61.1442 44.6689 61.1442 40.3987C61.1442 37.9147 61.1442 35.4307 61.1442 32.9467C61.1442 31.2753 60.9701 27.9303 59.033 27.2385C57.5971 26.7257 55.9314 26.9782 54.5289 26.3549C53.6042 25.9439 52.2421 26.3004 51.4324 25.7606" stroke="black" stroke-width="2" stroke-linecap="round"/>
<path d="M49.4106 39.3777C48.7791 39.062 48.2264 38.4651 47.478 38.4651C47.2973 38.5554 46.1299 39.7299 46.1299 39.8609C46.1299 40.0145 46.8584 40.8255 46.9948 40.9346C47.3873 41.2486 47.6425 41.6541 48.0744 41.9009C48.5882 42.1945 49.0004 42.6035 49.518 42.8911C49.9999 43.1588 49.7883 42.9779 50.1622 42.736C50.5112 42.5101 50.6613 42.0173 51.0211 41.8174C51.5408 41.5287 51.8558 40.9669 52.4587 40.7258C52.6993 40.6295 51.9566 40.5937 51.7131 40.5051C51.3776 40.3831 51.0773 40.2199 50.7527 40.0756C50.2886 39.8694 49.8652 39.605 49.4106 39.3777Z" fill="black" stroke="black" stroke-width="2" stroke-linecap="round"/>
<path d="M56.9263 39.3001C57.8083 39.0667 58.5829 38.8945 59.5032 38.8945C59.5032 39.1098 59.8766 40.9736 59.6582 41.0359C59.2478 41.1532 58.8056 41.4951 58.3758 41.6861C57.2064 42.2058 56.2211 42.8515 55.2621 43.6188C54.9434 43.8737 54.9937 43.4957 54.9937 43.243C54.9937 42.7795 54.8863 42.2649 54.8863 41.7696C54.8863 41.3919 54.9142 40.7915 54.7253 40.4514C54.5984 40.223 54.5423 40.0958 54.8863 40.0756C55.5333 40.0375 56.27 39.4739 56.9263 39.3001Z" fill="black" stroke="black" stroke-width="2" stroke-linecap="round"/>
<path d="M47.0788 48.6692C46.0905 48.6242 45.1439 48.3054 44.1572 48.3054C44.1572 49.2748 44.9085 50.3364 45.1 51.2939C45.2493 52.04 45.5505 52.7022 45.8072 53.4153C45.9266 53.7472 46.0819 54.1119 46.1476 54.4571C46.1782 54.6178 46.2957 54.7428 46.3048 54.9052C46.3086 54.9733 46.3605 55.2989 46.4212 55.1554C46.5079 54.9505 46.705 54.7646 46.8286 54.5793C47.0688 54.219 47.2216 53.8019 47.4571 53.4386C47.7099 53.0485 47.9668 52.6618 48.2399 52.2862C48.4192 52.0396 48.5506 51.7696 48.6851 51.5005C48.7434 51.384 48.7526 51.0664 48.8306 50.9884C48.8789 50.9401 49.1774 50.9596 49.1856 51.0291C49.2084 51.2226 49.238 51.4001 49.238 51.6024C49.238 52.0616 49.2522 52.4039 49.4213 52.8362C49.542 53.1446 49.6295 53.4471 49.6541 53.779C49.6822 54.1581 49.7949 54.5293 49.8142 54.9052C49.8278 55.1716 49.9217 55.4829 49.9829 55.7432C50.0011 55.8204 50.0143 56.1695 50.1023 55.976C50.2633 55.6217 50.271 55.2086 50.4165 54.8528C50.545 54.5386 50.6608 54.2153 50.8094 53.91C51.1941 53.1192 51.4826 52.2932 51.857 51.5005C51.9155 51.3765 51.8932 51.0713 52.0665 51.0815C52.1816 51.0883 52.2579 51.3881 52.2731 51.4714C52.3384 51.8307 52.5171 52.1749 52.5379 52.5481C52.5577 52.9043 52.7833 53.2529 52.8405 53.6073C52.891 53.9207 52.9928 54.1963 53.117 54.4862C53.2475 54.7909 53.4947 55.059 53.5855 55.3766C53.6923 55.7506 53.8085 55.3997 53.955 55.2165C54.7825 54.1822 55.6156 53.1501 56.5478 52.2048C56.7074 52.0429 57.5366 50.9187 57.5663 51.7508C57.5893 52.3963 57.843 53.0014 57.8835 53.6481C57.9397 54.5477 58.2472 55.4374 58.2472 56.3427C58.2472 56.4613 58.3555 55.9818 58.3781 55.9004C58.5139 55.4115 58.6366 54.9206 58.7826 54.4338C59.1313 53.2717 59.6226 52.1885 60.0514 51.0582C60.1802 50.7185 60.244 50.3263 60.4209 50.0077C60.5045 49.8574 60.4828 49.8244 60.3424 49.8244C59.2697 49.8244 58.1837 49.5507 57.1036 49.4607C56.2842 49.3924 55.4325 49.3486 54.6214 49.2075C54.2382 49.1409 53.7886 49.0387 53.4021 49.0387C52.9429 49.0387 52.4762 48.934 52.0141 48.934C51.2596 48.934 50.51 48.8292 49.7501 48.8292C48.8495 48.8292 47.9756 48.7099 47.0788 48.6692Z" fill="black" stroke="black" stroke-width="2" stroke-linecap="round"/>
<path d="M35.9446 62.9195C33.8544 62.9195 31.7642 62.9195 29.674 62.9195C26.7017 62.9195 23.7587 62.3487 20.7905 62.2663C18.6527 62.2069 16.5359 61.7437 14.3892 61.7437C13.9755 61.7437 13.5618 61.7437 13.1481 61.7437C12.8563 61.7437 13.1942 61.7517 13.2933 61.7365C13.765 61.6639 14.2016 61.5043 14.6505 61.3518C17.6748 60.3247 20.4333 58.806 23.3743 57.5923C24.6647 57.0597 26.0604 56.595 27.395 56.1916C28.8005 55.7666 30.1632 55.1692 31.6045 54.8489C31.782 54.8094 32.7638 54.5586 32.4827 54.5586C31.4596 54.5586 30.4356 54.5726 29.4127 54.5586C28.2499 54.5426 27.1192 54.2973 25.9508 54.2973C24.8049 54.2973 23.6909 54.036 22.5541 54.036C20.8381 54.036 19.1516 53.6441 17.452 53.6441C15.4948 53.6441 13.5376 53.6441 11.5805 53.6441C11.1232 53.6441 10.666 53.6441 10.2087 53.6441C9.37626 53.6441 10.8575 53.6543 11.0579 53.6368C12.5006 53.5114 13.9981 52.711 15.3327 52.2071C17.7589 51.291 19.9818 49.9032 22.3291 48.8104C24.0426 48.0128 25.745 47.2703 27.5765 46.7855C27.7661 46.7354 30.1385 46.1537 30.1385 45.9364C30.1385 45.8586 27.5735 46.0613 27.5039 46.067C25.4634 46.2336 23.4598 46.3031 21.4147 46.3283C18.7622 46.3611 16.121 46.3792 13.4747 46.3283C12.8003 46.3153 12.1244 46.3283 11.4498 46.3283C11.2964 46.3283 10.1594 46.3648 10.5353 46.1977C12.7898 45.1957 14.8229 43.6806 17.1326 42.7357C18.1938 42.3016 19.3029 41.8212 20.4276 41.5963C21.3624 41.4093 22.3133 41.2506 23.2073 40.9068C24.046 40.5842 26.7042 40.1883 25.8056 40.1883C22.2606 40.1883 18.7102 39.855 15.173 39.6585C13.9439 39.5902 12.7515 39.2738 11.5151 39.2738C10.2983 39.2738 9.08138 39.2738 7.8645 39.2738C7.1651 39.2738 7.54788 39.1432 7.98788 39.1432C8.73046 39.1432 9.41037 38.9434 10.1434 38.8891C12.9978 38.6777 15.8875 37.847 18.6785 37.2489C20.1467 36.9343 21.6643 36.637 23.113 36.2691C23.817 36.0903 24.7804 35.6555 25.4935 35.6159C25.8261 35.5974 25.5946 35.6159 25.3919 35.6159C24.8082 35.6159 24.192 35.3943 23.6573 35.1804C22.2024 34.5985 20.8236 33.8343 19.3607 33.2717C18.4124 32.9069 17.4309 32.6645 16.4794 32.3209C14.2714 31.5236 11.8865 31.2372 9.55555 31.1742C8.09998 31.1348 6.70632 30.4454 5.27349 30.3903C4.90375 30.3761 3.91691 30.3641 3.61147 30.1944C3.43675 30.0973 2.46379 30.1291 3.08891 30.1291C7.95717 30.1291 12.7953 29.8678 17.6624 29.8678C18.9099 29.8678 20.1354 29.7371 21.3856 29.7371C21.8501 29.7371 22.3146 29.7371 22.7791 29.7371C23.0609 29.7371 24.3332 29.6003 23.6646 29.8678" stroke="black" stroke-width="2" stroke-linecap="round"/>
<path d="M23.5253 30.031C20.0046 28.3634 16.8047 26.1126 13.4827 24.0364C10.1089 21.9278 6.88665 19.05 4.12869 16.1899C2.99165 15.0108 2.92926 13.5857 2.27688 12.0946C1.93451 11.312 0.992953 9.54609 2.17004 10.9194C2.44452 11.2396 2.99269 11.2978 3.36898 11.4535C4.9575 12.1109 6.55458 12.7465 8.14096 13.4122C11.3359 14.7529 14.5502 16.0446 17.7087 17.4719C21.2915 19.0911 24.7892 20.8243 28.4397 22.2439C28.9984 22.4612 31.4311 23.8064 31.4311 22.9799C31.4311 19.8802 32.112 17.0504 32.5469 14.0057C32.9348 11.2905 33.7815 8.65691 33.7815 5.8981C33.7815 5.55265 33.738 4.52168 34.0426 5.24522C34.6105 6.59399 35.6492 7.64174 36.5117 8.83014C38.2416 11.2136 39.8476 14.044 40.7139 16.8903C41.0264 17.9169 41.1361 19.1058 41.5805 20.0835C41.8078 20.5837 41.7207 21.0097 41.8891 20.0835C42.1555 18.6183 43.7758 17.2308 44.7262 16.1424C46.1387 14.5248 47.3499 12.8092 48.5248 11.0143C49.337 9.77342 50.1754 8.53582 50.9701 7.28696C51.2051 6.91774 51.3025 5.57916 51.3025 6.01681C51.3025 8.46611 51.3025 10.9154 51.3025 13.3647C51.3025 14.4885 51.3025 15.6122 51.3025 16.736C51.3025 17.6414 51.8264 19.4055 50.6615 18.7065" stroke="black" stroke-width="2" stroke-linecap="round"/>
<path d="M50.2285 19.2786C51.2211 19.1683 52.6804 17.3331 53.451 16.7058C54.8939 15.5314 56.1431 13.8865 57.2973 12.4438C59.3979 9.818 61.6713 7.39399 63.5604 4.59536C64.34 3.44046 65.1613 2.24235 66.1852 1.32086C66.7909 0.775779 66.1335 6.17945 66.1332 6.18063C65.2211 10.5015 63.7797 14.9777 62.1051 19.0447C61.9838 19.3393 63.3347 18.2657 63.6644 18.0572C66.1162 16.5068 68.5797 14.9628 71.1749 13.6652C73.5756 12.4649 75.9262 11.1773 78.2957 9.92292C78.4997 9.81492 79.7175 9.16 79.699 9.45513C79.6569 10.1288 79.243 10.7641 78.9974 11.3783C77.6988 14.6246 76.7045 18.017 75.1381 21.1498C74.9745 21.477 74.1559 23.6182 74.2155 23.5927C74.9692 23.2697 76.0888 23.2548 76.9053 23.2548C79.7034 23.2548 82.5014 23.2548 85.2995 23.2548C86.0358 23.2548 86.7721 23.2548 87.5085 23.2548C87.7332 23.2548 87.1069 23.4585 86.8977 23.5407C85.941 23.9166 85.1156 24.7003 84.3639 25.3729C81.9008 27.5767 79.206 29.541 76.7884 31.7919C76.4452 32.1114 73.9731 34.2478 74.7873 34.2478C75.7055 34.2478 76.3196 34.5237 77.1262 34.9495C78.9282 35.9005 80.7827 36.7578 82.5577 37.7562C85.5344 39.4306 88.8325 40.3998 91.8615 41.9143C92.6358 42.3015 91.7196 42.2002 91.3417 42.2002C89.6611 42.2002 87.9806 42.2002 86.3 42.2002C84.2166 42.2002 82.1333 42.2002 80.0499 42.2002C79.5984 42.2002 78.7036 42.0179 79.5821 42.2131C80.4412 42.4041 81.4208 43.5042 82.051 44.0713C84.2507 46.0511 86.8807 47.5371 89.0677 49.4508C89.2606 49.6196 90.9474 50.6203 90.1073 50.6203C88.9492 50.6203 87.7771 50.3864 86.5859 50.3864C83.7878 50.3864 80.9898 50.3864 78.1917 50.3864C77.2881 50.3864 78.1058 50.6838 78.5426 50.9841C79.6232 51.7271 80.7442 52.835 81.6741 53.7649C82.6446 54.7353 83.6775 55.9886 84.7277 56.8055C85.1391 57.1254 85.6067 57.6586 86.1051 57.858C86.6802 58.088 84.8664 57.871 84.247 57.871C81.9087 57.871 79.5961 57.5626 77.2691 57.3902C76.5189 57.3346 75.7382 56.9732 75.0212 56.9354C73.7242 56.8671 72.5715 56.7546 71.2789 56.5196C70.2029 56.324 68.7354 56.3004 67.7705 55.8179C67.6686 55.767 68.9234 56.0367 69.2778 56.2857C70.8372 57.3815 72.4746 58.3427 74.0336 59.4563C75.4134 60.4418 76.9177 61.2665 78.2437 62.315C79.1345 63.0193 80.0837 63.9106 81.1024 64.42C81.5011 64.6194 83.5644 66.4398 83.3114 66.512C82.1044 66.8569 80.0729 65.9311 78.8934 65.7194C77.2954 65.4326 75.6768 64.8942 74.0856 64.6669C70.8055 64.1983 67.621 63.4844 64.2751 63.4844C63.3482 63.4844 62.5148 63.2505 61.5853 63.2505" stroke="black" stroke-width="2" stroke-linecap="round"/>
<path d="M35.3368 62.8635C32.7924 64.8425 30.8411 67.6392 28.9894 70.2332C26.001 74.4197 23.527 78.8273 21.0857 83.34C20.6345 84.174 20.2447 85.1374 19.6819 85.9034C19.5369 86.1008 19.159 86.6952 19.1936 86.4527C19.2175 86.2853 19.8695 85.9702 19.9871 85.8729C20.71 85.2742 21.452 84.6996 22.1232 84.0419C24.6563 81.5594 27.4115 79.3049 30.1643 77.0689C32.9184 74.8317 35.4933 72.454 38.0833 70.0349C38.2189 69.9081 41.1779 66.6778 41.2493 66.7849C41.9193 67.7898 42.4285 69.0974 42.9735 70.1874C44.8979 74.0362 46.58 78.0107 48.3749 81.921C49.405 84.1651 50.5009 86.3367 51.7393 88.4667C51.8641 88.6814 52.772 90.1447 52.7769 90.0231C52.8278 88.7491 52.343 87.452 52.2581 86.178C52.1286 84.2358 52.1099 82.2802 52.0903 80.3341C52.0656 77.8927 51.6783 75.4783 51.6783 73.0255C51.6783 72.5727 51.752 72.0387 51.6707 71.5912C51.5997 71.2011 51.4299 70.7706 51.5486 70.3553C51.7346 69.7043 61.2528 74.6132 61.4893 74.7344C63.9442 75.9928 66.5721 77.0964 68.8971 78.5947C69.7874 79.1684 70.5132 80.0202 71.3079 80.7156C71.6852 81.0457 72.029 81.2681 72.4752 81.4709C72.7317 81.5875 72.5837 81.3452 72.5438 81.1657C72.3034 80.0835 71.7424 79.0313 71.2545 78.0454C69.6401 74.7828 68.1239 71.4579 66.4024 68.2497C66.1414 67.7633 65.9483 67.1089 65.548 66.7086C65.2513 66.4119 64.8597 66.0843 64.5104 65.8846C63.8893 65.5297 63.5006 64.8673 62.8778 64.5114C62.3802 64.227 62.0848 63.7645 61.8402 63.2755" stroke="black" stroke-width="2" stroke-linecap="round"/>
</svg>
