  <svg
                  xmlns="http://www.w3.org/2000/svg"
                  width="15"
                  height="21"
                  viewBox="0 0 15 21"
                  fill="none"
                >
                  <path
                    d="M7.07714 1.65614C7.68494 1.21717 8.63526 1.33695 9.34504 1.33695C9.77989 1.62686 9.98233 1.511 10.479 1.73174C11.2322 2.06651 12.1269 1.9309 12.8981 2.20631C13.9385 2.57789 14.032 4.37448 14.032 5.27218V9.2746C14.032 11.5681 13.7806 13.8395 13.5826 16.1161C13.4618 17.5056 13.1431 18.5968 12.1253 19.6145C11.7849 19.9549 11.0505 20.0093 10.5966 20.0093H8.47987H6.39677C5.88068 20.0093 5.28153 20.0971 4.77564 20.0051C4.05133 19.8734 3.54729 19.1314 2.90252 18.8586C2.56977 18.7178 2.30479 18.1852 2.04996 17.9304C1.68547 17.5659 1.49367 16.6283 1.48299 16.1371C1.46918 15.502 1.55766 14.8236 1.47879 14.1926C1.40084 13.569 1.33179 12.9489 1.33179 12.3111C1.33179 11.739 1.2999 11.1778 1.42419 10.6185C1.66447 9.53727 2.13068 8.52961 2.50354 7.49388C2.68406 6.99245 2.91932 6.48938 2.91932 5.94835C2.91932 5.57836 3.10231 5.25213 3.29731 4.94879C3.59087 4.49214 3.84378 4.07614 4.28426 3.71825C4.75503 3.33574 5.22594 2.95319 5.7122 2.5885C6.16754 2.24699 6.62401 1.9834 7.07714 1.65614Z"
                    fill="#F24E1E"
                    stroke="black"
                    stroke-linecap="round"
                  />
                  <path
                    d="M7.72982 8.72589C7.39065 8.5563 7.0938 8.23572 6.69182 8.23572C6.5948 8.28423 5.96777 8.91505 5.96777 8.98539C5.96777 9.06792 6.35908 9.50347 6.43231 9.56206C6.64314 9.73072 6.7802 9.9485 7.01219 10.0811C7.28813 10.2387 7.50949 10.4584 7.78749 10.6129C8.04635 10.7567 7.93268 10.6595 8.13349 10.5296C8.32094 10.4083 8.40158 10.1436 8.59483 10.0362C8.87394 9.88115 9.04315 9.57944 9.36693 9.44993C9.49618 9.39823 9.09729 9.37897 8.96646 9.33139C8.7863 9.26588 8.62498 9.1782 8.45066 9.10072C8.20141 8.98994 7.97398 8.84796 7.72982 8.72589Z"
                    fill="black"
                    stroke="black"
                    stroke-linecap="round"
                  />
                  <path
                    d="M11.7662 8.68428C12.2399 8.55889 12.6559 8.46643 13.1502 8.46643C13.1502 8.58203 13.3508 9.58307 13.2335 9.61657C13.0131 9.67956 12.7756 9.86318 12.5447 9.96577C11.9167 10.2449 11.3875 10.5917 10.8724 11.0038C10.7012 11.1407 10.7282 10.9377 10.7282 10.8019C10.7282 10.553 10.6705 10.2766 10.6705 10.0106C10.6705 9.80773 10.6855 9.4853 10.584 9.3026C10.5159 9.17997 10.4858 9.11164 10.6705 9.10077C11.0181 9.08033 11.4137 8.77759 11.7662 8.68428Z"
                    fill="black"
                    stroke="black"
                    stroke-linecap="round"
                  />
                  <path
                    d="M6.47737 13.7167C5.94657 13.6926 5.43814 13.5214 4.9082 13.5214C4.9082 14.042 5.31173 14.6122 5.41459 15.1265C5.49473 15.5272 5.6565 15.8829 5.79438 16.2658C5.85855 16.4441 5.94193 16.64 5.97724 16.8254C5.99368 16.9117 6.05679 16.9788 6.06164 17.0661C6.06367 17.1026 6.09155 17.2775 6.12415 17.2005C6.17073 17.0904 6.27661 16.9905 6.34296 16.891C6.47197 16.6975 6.55406 16.4735 6.68055 16.2783C6.81635 16.0688 6.95428 15.8611 7.10097 15.6594C7.19731 15.527 7.26785 15.3819 7.3401 15.2374C7.3714 15.1749 7.37635 15.0043 7.41825 14.9624C7.44418 14.9364 7.60453 14.9469 7.60892 14.9843C7.62115 15.0881 7.63706 15.1835 7.63706 15.2921C7.63706 15.5388 7.64466 15.7226 7.73552 15.9548C7.80032 16.1204 7.84735 16.2829 7.86055 16.4612C7.87563 16.6648 7.93616 16.8642 7.94651 17.0661C7.95385 17.2092 8.00427 17.3764 8.03716 17.5162C8.04691 17.5576 8.05402 17.7451 8.10124 17.6412C8.18775 17.4509 8.19185 17.229 8.27004 17.0379C8.33906 16.8692 8.40126 16.6955 8.48103 16.5315C8.68766 16.1068 8.84263 15.6632 9.04368 15.2374C9.07515 15.1708 9.06314 15.0069 9.15621 15.0124C9.21802 15.016 9.25904 15.1771 9.26718 15.2218C9.30226 15.4148 9.39826 15.5996 9.4094 15.8001C9.42003 15.9914 9.54124 16.1786 9.57195 16.369C9.59909 16.5373 9.65371 16.6853 9.72042 16.841C9.79056 17.0047 9.92332 17.1487 9.97205 17.3192C10.0294 17.5201 10.0918 17.3317 10.1705 17.2333C10.615 16.6777 11.0624 16.1234 11.5631 15.6157C11.6488 15.5287 12.0942 14.9249 12.1101 15.3719C12.1225 15.7186 12.2588 16.0435 12.2805 16.3909C12.3107 16.8741 12.4758 17.3519 12.4758 17.8381C12.4758 17.9018 12.534 17.6443 12.5462 17.6006C12.6191 17.338 12.685 17.0743 12.7634 16.8129C12.9507 16.1887 13.2146 15.607 13.4449 14.9999C13.5141 14.8174 13.5483 14.6067 13.6433 14.4357C13.6882 14.3549 13.6766 14.3372 13.6011 14.3372C13.025 14.3372 12.4417 14.1902 11.8616 14.1418C11.4215 14.1052 10.9641 14.0816 10.5285 14.0059C10.3226 13.9701 10.0812 13.9152 9.87359 13.9152C9.62695 13.9152 9.37626 13.859 9.12808 13.859C8.72286 13.859 8.32024 13.8027 7.91213 13.8027C7.42837 13.8027 6.95905 13.7386 6.47737 13.7167Z"
                    fill="black"
                    stroke="black"
                    stroke-linecap="round"
                  />
                </svg>