<svg xmlns="http://www.w3.org/2000/svg" width="188" height="204" viewBox="0 0 188 204" fill="none">
  <path d="M172.371 87.7637C165.403 87.7637 161.622 90.6158 157.52 96.0851C152.982 102.135 149.49 108.962 147.407 116.253C146.019 121.111 143.246 126.099 143.246 131.191C143.246 133.519 144.286 135.095 144.286 137.172C144.286 144.848 136.255 149.278 135.965 156.82C135.868 159.341 135.959 161.82 139.345 161.067C141.031 160.693 144.775 157.495 145.846 156.155C146.592 155.224 147.915 155.375 148.967 155.375C150.658 155.375 151.006 156.333 151.047 158.091C151.147 162.295 151.528 166.971 150.267 171.007C149.208 174.395 146.638 187.719 150.816 189.239C154.373 190.532 156.536 191.781 160.409 191.781C163.915 191.781 167.338 191.156 170.811 190.77C175.038 190.3 177.025 189.728 180.172 186.58C182.062 184.69 182.383 181.959 183.928 179.819C184.868 178.518 185.723 177.039 186.413 175.658" stroke="black" stroke-width="2" stroke-linecap="round"/>
  <path d="M145.327 172.538C135.814 172.538 125.32 171.683 117.242 166.297" stroke="#FF5705" stroke-width="2" stroke-linecap="round"/>
  <path d="M137.005 179.299C132.245 179.299 128.454 178.673 124.581 181.842C123.734 182.535 120.114 186.196 119.842 186.06" stroke="#FF5705" stroke-width="2" stroke-linecap="round"/>
  <path d="M141.594 183.2C140.225 183.352 137.418 186.752 136.466 187.704C133.129 191.04 130.002 194.398 126.388 197.447C124.455 199.078 122.576 201.739 120.324 202.865" stroke="#FF5705" stroke-width="2" stroke-linecap="round"/>
  <path d="M148.817 113.772H162.863" stroke="black" stroke-width="2" stroke-linecap="round"/>
  <path d="M155.84 113.935C154.64 114.895 153.088 117.953 151.428 118.691C150.469 119.117 147.415 119.132 147.415 117.977" stroke="black" stroke-width="2" stroke-linecap="round"/>
  <path d="M82.262 100.017C79.1271 100.017 75.8236 103.857 75.8236 107.226C75.8236 114.882 75.5325 121.621 77.6946 128.852C78.5448 131.696 79.1681 137.258 82.0144 138.668C83.5373 139.423 84.793 139.773 86.4717 139.773C88.633 139.773 88.0259 138.828 89.4433 137.564C90.8946 136.269 89.541 130.624 90.2962 128.729C91.0477 126.844 90.745 124.407 91.1492 122.38C91.4621 120.809 91.4697 117.914 91.1492 116.306C90.2648 111.869 87.3214 100.017 81.7668 100.017" stroke="black" stroke-width="2" stroke-linecap="round"/>
  <path d="M65.0601 132.133C65.5738 137.785 72.4881 143.991 77.2075 146.489C80.1457 148.045 81.8948 148.698 85.2139 148.698C87.0295 148.698 90.2427 149.309 91.8398 148.422C95.2152 146.547 97.7238 144.919 100.153 141.796C102.743 138.466 102.055 132.901 102.055 128.82" stroke="black" stroke-width="2" stroke-linecap="round"/>
  <path d="M88.2506 151.458C88.2506 156.286 89.355 161.131 89.355 165.815C89.355 166.526 89.8046 170.143 89.6004 170.201C87.8107 170.713 86.2826 170.784 84.3855 170.784C83.0052 170.784 79.7976 170.784 83.0051 170.784C84.7536 170.784 86.5021 170.784 88.2506 170.784C91.7476 170.784 95.2446 170.784 98.7416 170.784" stroke="black" stroke-width="2" stroke-linecap="round"/>
  <path d="M52.7531 128.591C46.6591 128.591 39.3206 130.222 34.15 124.787C29.8846 120.304 28.8296 114.42 26.8055 108.266C25.1818 103.329 25.8379 96.0812 25.8379 90.6748C25.8379 85.5545 28.77 80.9256 29.0044 76.174C29.0627 74.992 25.9762 79.0776 25.3982 79.8587C23.8391 81.9654 21.5578 83.5339 19.9448 86.3365C19.5445 87.0319 16.7872 93.4732 16.5144 93.052C15.5396 91.5466 19.6439 87.2779 20.1207 86.6336C22.9586 82.7986 25.5382 79.1149 30.1919 80.5124C34.3248 81.7535 34.3626 92.0962 37.7123 94.3595" stroke="black" stroke-width="2" stroke-linecap="round"/>
  <path d="M2.08996 11.2055C2.08996 20.3466 3.32592 29.2671 3.67321 38.2965C3.84075 42.6526 4.59497 48.3949 5.87216 52.5457C7.17551 56.7816 6.02765 61.8233 7.80723 65.8274C9.48984 69.6133 13.8026 70.1128 17.9224 68.3782C21.6394 66.8131 28.8303 68.2023 32.7873 68.2023C38.7177 68.2023 44.6867 67.7269 50.3789 67.4106C53.4381 67.2407 58.7409 68.4789 61.2857 66.4431C63.3612 64.7827 62.2533 58.8425 62.2533 56.3279C62.2533 51.386 60.6696 46.6513 59.2627 41.9028C57.7578 36.8237 57.0989 31.0752 54.9527 26.2463C53.4908 22.9568 52.6041 3.50081 48.7957 3.28923C44.7664 3.06538 41.2018 1.70599 36.9213 1.70599C33.1487 1.70599 28.0618 0.806195 24.4313 1.8819C19.6979 3.28438 15.3613 3.20643 10.7978 5.48818C7.60744 7.08336 4.2804 8.13118 1.29834 9.62221" stroke="black" stroke-width="2" stroke-linecap="round"/>
  <path d="M4.46484 38.1209C4.46484 34.3194 6.71421 26.7514 11.5894 27.0382C15.5237 27.2696 15.8004 43.9425 16.9549 46.8288C18.3464 50.3075 17.5706 52.3701 21.8805 52.3701C25.246 52.3701 24.2554 48.496 24.2554 46.0371C24.2554 39.3733 24.7951 33.1394 25.7947 26.6424C25.9551 25.5993 28.5928 19.2359 30.5884 22.7283C31.9468 25.1054 33.3245 28.2917 33.7109 30.9963C34.1385 33.9898 34.7872 38.0882 37.3172 40.056C40.1269 42.2413 39.2962 35.9234 39.2962 34.5586C39.2962 28.365 46.1578 29.7312 48.3999 33.767C50.0921 36.813 56.7119 46.247 56.7119 37.3293" stroke="black" stroke-width="2" stroke-linecap="round"/>
  <path d="M147.086 118.483C147.526 116.977 148.032 115.397 148.032 113.804C148.032 114.002 149.485 113.804 151.386 113.772C152.636 113.804 153.232 114.415 154.443 114.11C154.579 114.076 155.27 114.069 155.235 114.11C155.158 114.203 154.529 114.955 154.443 115.046C154.241 115.261 154.114 115.554 153.95 115.803C153.477 116.518 152.765 116.958 152.185 117.557C151.691 118.067 151.142 118.521 150.483 118.729C150.16 118.83 149.809 118.704 149.485 118.799C149.093 118.915 148.643 118.861 148.239 118.925C147.832 118.989 147.389 118.937 146.976 118.937C146.957 118.937 147.069 118.542 147.086 118.483Z" fill="black"/>
</svg>