<svg width="171" height="213" viewBox="0 0 171 213" fill="none" xmlns="http://www.w3.org/2000/svg">
<path d="M10.5981 5.00113C14.6237 5.00113 18.5576 4.467 22.616 4.467C25.942 4.467 29.1746 3.39874 32.527 3.39874C37.6903 3.39874 42.9049 3.64583 48.0464 3.13168C69.0405 1.03227 90.5654 2.33049 111.667 2.33049C117.435 2.33049 123.729 1.61778 129.412 2.59755C133.227 3.25527 137.591 3.39874 141.459 3.39874C143.697 3.39874 161.71 3.6868 161.756 4.467C162.34 14.3978 161.503 24.3267 160.718 34.1407C159.86 44.8613 159.794 55.5119 159.62 66.3071C159.574 69.1256 158.789 71.9034 158.581 74.7047C158.364 77.6311 158.467 80.682 157.75 83.5475C156.861 87.103 157.671 91.0935 157.216 94.7345C156.735 98.5826 156.719 102.382 156.385 106.218C156.004 110.6 154.812 114.765 154.812 119.186C154.812 123.676 154.812 128.167 154.812 132.658C154.812 136.162 153.453 139.174 152.706 142.539C152.416 143.844 152.286 144.745 151.014 145.239C146.366 147.047 141.863 149.239 137.127 150.818C127.438 154.048 117.33 154.3 107.275 155.506C98.8971 156.512 90.5906 156.693 82.1712 156.693C65.632 156.693 48.2743 158.347 31.9929 155.091C29.673 154.627 18.4503 152.772 18.0759 149.215C17.9366 147.892 17.2901 146.389 16.7406 145.18C15.6262 142.728 15.591 139.02 15.435 136.367C14.7382 124.521 15.9414 112.655 16.4439 100.847C17.2717 81.3937 17.7072 61.7661 15.524 42.39C14.5402 33.6588 14.337 24.1468 14.337 15.4166C14.337 12.5744 14.1617 5.53525 10.5981 5.53525" stroke="black" stroke-width="2" stroke-linecap="round"/>
<path d="M1.19043 175.355C13.1455 175.355 24.8726 173.871 36.803 173.871C49.6081 173.871 62.4133 173.871 75.2184 173.871C97.7923 173.871 120.366 173.871 142.94 173.871C149.48 173.871 156.02 173.871 162.56 173.871C163.698 173.871 168.787 173.257 168.866 174.613C169.003 176.944 168.866 179.326 168.866 181.661C168.866 187.461 169.608 192.961 169.608 198.726C169.608 203.601 171.466 209.484 165.157 209.484C156.006 209.484 146.856 209.484 137.705 209.484C127.175 209.484 116.9 210.967 106.379 210.967C82.5127 210.967 57.9501 212.369 34.536 209.442C28.0211 208.628 21.5102 208.742 14.9161 208.742C12.6945 208.742 10.4708 208.109 8.60972 208C5.19168 207.799 4.90007 207.391 4.90007 203.919C4.90007 199.169 5.20728 194.358 4.19936 189.822C3.26541 185.62 1.93236 181.039 1.93236 176.839" stroke="black" stroke-width="2" stroke-linecap="round"/>
<path d="M26.4906 181.057C17.2606 181.057 26.923 200.153 26.923 204.403" stroke="black" stroke-width="2" stroke-linecap="round"/>
<path d="M18.2764 197.486C20.6891 197.486 23.2416 197.743 25.6263 197.39C27.1893 197.158 28.856 196.189 30.3821 196.189" stroke="black" stroke-width="2" stroke-linecap="round"/>
<path d="M33.4087 183.219C33.4087 188.487 33.6746 192.887 35.7626 197.822C36.2788 199.043 36.5377 200.368 37.0836 201.569C37.3202 202.09 37.2998 203.596 37.2998 202.242" stroke="black" stroke-width="2" stroke-linecap="round"/>
<path d="M39.8936 190.569C39.8936 193.721 41.6917 196.338 44.4572 197.919C48.084 199.991 50.9766 197.798 51.1346 193.691C51.2347 191.086 50.5897 186.677 47.0033 186.677C45.8383 186.677 43.8425 186.29 42.92 187.11C41.8206 188.087 41.7914 188.935 41.1906 190.136" stroke="black" stroke-width="2" stroke-linecap="round"/>
<path d="M56.323 188.407C56.323 190.628 55.1136 200.349 59.7818 198.014C60.9132 197.449 60.6465 195.024 60.6465 195.541C60.6465 197.588 62.5546 199.251 63.2406 201.137C64.4845 204.558 69.7086 203.46 70.1341 200.056C70.4953 197.166 70.5964 193.174 69.2934 190.569C68.6996 189.381 67.81 185.936 66.6993 185.38" stroke="black" stroke-width="2" stroke-linecap="round"/>
<path d="M74.4811 194.028C75.2219 194.028 76.8763 194.34 77.5075 193.931C78.5006 193.289 78.1037 189.415 77.5075 188.503C75.9108 186.061 73.1841 185.866 73.1841 189.056C73.1841 193.63 74.3791 198.673 77.9639 201.81C81.9313 205.281 84.0149 201.355 86.5868 198.783" stroke="black" stroke-width="2" stroke-linecap="round"/>
<path d="M83.9932 189.271C86.0177 189.455 87.323 191.296 88.5328 192.73C90.4869 195.046 92.4991 197.146 94.3214 199.576C94.7301 200.121 97.5164 205.086 95.042 204.379C93.2727 203.874 93.0724 195.153 93.0724 193.691C93.0724 191.599 93.085 188.617 95.2342 187.542" stroke="black" stroke-width="2" stroke-linecap="round"/>
<path d="M96.531 181.489C96.531 178.598 98.4274 175.66 99.3413 172.986C102.084 164.962 104.021 156.477 104.553 148.006C105.4 134.546 104.936 120.763 100.638 107.87C99.574 104.677 98.812 108.291 98.4526 109.575C97.548 112.806 95.5585 115.54 94.4654 118.702C94.2349 119.369 93.0723 123.753 93.0723 120.96C93.0723 117.757 93.6839 115.331 94.8017 112.313C95.6228 110.096 97.9874 105.577 100.638 104.987C103.063 104.449 104.513 105.871 106.451 107.125C109.109 108.845 113.629 112.159 114.69 115.34" stroke="black" stroke-width="2" stroke-linecap="round"/>
<path d="M76.643 38.8147C75.4376 40.1707 76.1847 44.0082 76.8591 45.492C77.8176 47.6007 78.9956 49.1051 81.3027 49.9596C86.1433 51.7524 90.6236 51.3392 93.5045 46.9332C96.1404 42.9017 91.9426 39.0185 88.7487 37.4215C85.4616 35.778 80.6465 35.425 77.5077 37.5176" stroke="black" stroke-width="2" stroke-linecap="round"/>
<path d="M67.1314 31.0327C67.1314 25.9702 67.151 21.175 72.3195 18.5907C74.2932 17.6039 75.232 18.3248 76.7391 19.5515C79.9615 22.1744 82.5197 25.5716 86.4909 27.1416C89.575 28.3609 89.8629 26.6519 91.8712 24.6436C93.7878 22.727 96.4364 21.2503 99.125 20.7524C100.913 20.4213 105.137 18.6464 106.811 20.3201C108.489 21.9976 107.225 27.243 106.715 29.0631C106.003 31.6048 105.61 34.2372 105.61 36.8694C105.61 40.5416 112.354 43.622 114.665 46.1648C116.36 48.0285 117.716 50.3205 117.716 52.8662C117.716 55.06 114.8 56.4302 113.392 57.8382C110.513 60.7172 108.918 63.7606 107.123 67.3498C106.701 68.194 105.158 72.5942 103.665 71.4331C101.83 70.0065 99.9605 67.6263 98.4765 65.8126C97.3636 64.4524 95.9668 62.2631 93.9369 62.1616C91.1092 62.0203 90.0142 63.2226 88.7487 65.6204C87.2594 68.4422 84.6565 71.617 81.9272 73.3066C79.384 74.881 77.5411 75.132 74.5773 75.132C71.9894 75.132 71.8872 73.0012 71.8872 70.8086C71.8872 68.9351 71.8872 67.0616 71.8872 65.1881C71.8872 63.2275 72.4184 62.1616 70.1578 62.1616C67.3144 62.1616 64.4487 62.2669 61.6069 62.1616C58.7907 62.0573 58.3392 59.7044 57.4036 57.646C56.9459 56.6391 56.9682 54.3931 57.2114 53.2985C57.6614 51.2735 61.5726 51.1565 63.0001 50.2481C63.9047 49.6724 66.3712 47.1821 65.1618 45.9727C63.3758 44.1867 58.9803 44.6792 56.7791 43.1384C54.1764 41.3165 51.1301 39.6227 49.6454 36.6532C48.7614 34.8854 49.3569 33.1944 51.3507 33.1944C54.0828 33.1944 56.5385 32.9061 59.3491 33.2184C61.8688 33.4984 64.1276 34.0591 66.699 34.0591" stroke="black" stroke-width="2" stroke-linecap="round"/>
<path d="M92.6395 65.188C92.3174 67.4424 90.6119 69.6477 89.6131 71.6732C88.1923 74.5542 86.7258 77.3998 85.2896 80.2721C83.0523 84.7468 81.6761 89.5677 79.6691 94.1552C76.3386 101.768 75.3456 110.383 75.3456 118.607C75.3456 127.191 74.243 136.751 76.1142 145.172C76.5232 147.012 77.0056 149.448 77.075 151.321C77.1048 152.124 78.2536 155.057 77.5074 154.684" stroke="black" stroke-width="2" stroke-linecap="round"/>
<path d="M74.4814 107.125C74.0538 104.988 70.8987 102.754 69.2932 101.505C67.427 100.053 65.7379 98.4726 64.105 96.7491C62.8379 95.4116 61.5582 93.397 60.6463 91.8011C59.9001 90.4954 58.6571 91.2531 57.86 90.4561C54.1658 86.7618 52.7102 81.2158 48.2043 78.1582C41.7996 73.8122 39.0289 84.2338 39.0289 88.7507C39.0289 90.6012 38.9053 92.5016 39.053 94.3472C39.1743 95.8643 40.423 96.9054 41.1907 98.1422C44.1417 102.897 43.8124 109.328 44.4333 114.667C44.7403 117.308 44.3725 122.301 46.3788 124.419C47.8942 126.019 48.6014 124.759 49.069 123.122C51.4962 114.627 52.7772 105.529 53.7527 96.7491C54.1505 93.1696 55.4193 89.8316 59.3492 89.8316" stroke="black" stroke-width="2" stroke-linecap="round"/>
<path d="M58.9168 88.9667C55.9039 88.9667 51.1279 87.1442 49.7414 90.2637C48.8399 92.2922 48.7597 93.9476 48.3243 96.1244C47.7693 98.8995 49.2378 103.485 47.6758 105.828" stroke="black" stroke-width="2" stroke-linecap="round"/>
</svg>
