<svg width="172" height="225" viewBox="0 0 172 225" fill="none" xmlns="http://www.w3.org/2000/svg">
<path d="M3.61093 109.485C3.61093 117.448 3.61093 125.412 3.61093 133.376C3.61093 140.695 3.00651 149.316 4.52345 156.521C7.0988 168.754 5.42177 181.829 7.71729 194.225C9.12463 201.825 8.6307 215.271 16.3448 219.61C22.276 222.946 31.1091 223.61 37.7891 223.716C47.0123 223.863 56.4174 224.153 65.5797 223.135C79.5634 221.582 93.8796 220.73 107.971 220.73C114.406 220.73 120.869 222.183 125.682 217.37C130.694 212.358 130.535 202.514 130.535 195.926C130.535 191.294 131.199 186.118 130.493 181.533C129.877 177.526 128.79 173.57 128.254 169.545C127.863 166.618 126.166 163.718 126.055 160.835C125.952 158.161 126.055 155.464 126.055 152.788C126.055 149.137 124.727 145.795 124.562 142.17C124.372 137.981 123.721 133.071 122.488 129.062C120.88 123.836 120.575 118.351 118.008 113.218C116.653 110.506 116.922 108.973 114.483 107.618C110.935 105.647 107.219 105.487 103.284 104.632C92.154 102.212 80.4562 104.258 69.3127 104.258C61.2315 104.258 52.4728 103.391 44.5086 104.839C34.858 106.594 23.4539 107.245 13.6902 107.245C9.53217 107.245 5.60885 109.485 1.37109 109.485" stroke="black" stroke-width="2" stroke-linecap="round"/>
<path d="M28.9954 148.308C28.9954 141.435 56.3268 129.356 56.6201 137.275C56.7594 141.037 55.335 144.339 53.4677 147.562C48.5765 156.003 43.5086 164.783 37.9963 172.822C36.3133 175.276 22.4098 193.435 27.2119 197.17C31.6398 200.614 36.382 194.942 37.9548 191.612C40.1389 186.986 39.1074 180.172 43.1811 176.389C46.3236 173.471 49.7739 174.411 52.3063 177.758C57.1428 184.149 57.8024 194.332 65.5794 198.331C71.9105 201.587 69.3125 182.923 69.3125 179.79C69.3125 173.747 70.4353 165.743 78.4377 165.48C85.6435 165.244 92.122 170.048 99.1354 169.172C107.825 168.086 95.7832 152.204 94.4069 150.216C90.1876 144.122 85.8475 139.352 77.94 140.261C63.5283 141.918 50.9372 153.534 36.0883 153.534C30.9482 153.534 27.4516 152.709 31.2353 158.595C34.3496 163.439 33.7139 157.895 36.4616 156.521" stroke="black" stroke-width="2" stroke-linecap="round"/>
<path d="M136.507 142.335C142.27 141.695 145.119 133.563 146.96 129.062C149.04 123.977 149.946 119.435 149.946 113.964C149.946 104.325 149.536 92.3592 143.227 84.473C141.962 82.8921 139.127 89.3588 138.747 90.4044C137.999 92.4616 139.171 85.5858 139.66 84.2656C142.377 76.9282 149.156 79.9712 154.426 82.6065" stroke="black" stroke-width="2" stroke-linecap="round"/>
<path d="M103.656 41.543C103.656 47.3068 103.14 52.3725 108.509 55.3553C110.395 56.4028 116.349 54.8355 116.349 52.3689C116.349 49.2345 117.088 45.6001 114.69 43.2022C112.504 41.016 108.291 41.0925 105.896 42.2896" stroke="black" stroke-width="2" stroke-linecap="round"/>
<path d="M105.15 81.8598C105.15 74.1772 105.789 65.3713 112.243 60.208C120.02 53.9862 124.895 66.4349 126.802 72.1538" stroke="black" stroke-width="2" stroke-linecap="round"/>
<path d="M135.014 29.5971C135.014 37.1019 148.247 29.9503 151.44 28.2698C154.108 26.8654 155.002 21.3084 151.813 19.8912C147.701 18.0637 142.147 18.9607 138.374 20.6378C134.389 22.409 135.761 29.0802 135.761 32.5835" stroke="black" stroke-width="2" stroke-linecap="round"/>
<path d="M143.227 60.9547C143.227 52.1111 143.74 40.3128 149.947 33.33C159.131 22.9971 170.852 51.1804 170.852 58.7148" stroke="black" stroke-width="2" stroke-linecap="round"/>
<path d="M61.0996 29.5972C61.0996 33.5009 62.9805 49.9994 70.8056 45.8567C72.3451 45.0417 71.5522 40.0921 71.5522 38.5565C71.5522 34.9327 70.3828 37.648 68.5657 38.5565" stroke="black" stroke-width="2" stroke-linecap="round"/>
<path d="M70.0591 31.09C72.0774 32.9249 84.2447 45.4967 84.2447 37.8096C84.2447 34.7036 84.1768 33.8997 82.1708 31.6707C80.8006 30.1483 79.868 26.6619 78.2718 25.8638" stroke="black" stroke-width="2" stroke-linecap="round"/>
<path d="M81.2583 21.3843C81.2583 20.5283 82.006 23.4655 82.4197 23.9975C83.2582 25.0755 84.1856 25.9767 84.9914 26.9839C86.2049 28.5008 87.5056 29.9401 88.7244 31.4636C92.7442 36.4883 94.5965 29.6475 97.6838 28.1038" stroke="black" stroke-width="2" stroke-linecap="round"/>
<path d="M84.2446 28.1038C84.4864 26.1696 90.7779 22.5039 92.4574 21.3843" stroke="black" stroke-width="2" stroke-linecap="round"/>
<path d="M80.5117 21.3845C83.0324 21.1044 85.7604 18.0135 87.9778 16.9048" stroke="black" stroke-width="2" stroke-linecap="round"/>
<path d="M99.177 7.94531C97.8839 9.23834 91.1236 15.1981 95.4439 17.4853C97.7088 18.6844 103.017 15.0322 105.15 14.0841C109.561 12.1235 110.376 16.805 110.376 19.8911C110.376 24.7994 106.93 23.6242 102.91 23.6242" stroke="black" stroke-width="2" stroke-linecap="round"/>
<path d="M114.109 1.97245C112.316 1.97245 104.18 1.31991 107.555 5.53959C109.648 8.15504 113.634 7.19873 116.722 7.19873C121.158 7.19873 121.575 10.6922 121.575 14.2915C121.575 17.7681 115.602 19.2379 115.602 16.1581" stroke="black" stroke-width="2" stroke-linecap="round"/>
</svg>
